<svg width="423" height="341" viewBox="0 0 423 341" fill="none" xmlns="http://www.w3.org/2000/svg">
<path d="M199.405 182.974C180.582 191.141 143.931 203.281 104.801 191.36C40.5924 171.797 -5.44404 95.0575 0.519503 2.70331C78.8476 -9.55711 152.228 20.6616 184.967 77.6096C207.025 115.969 204.457 155.703 201.827 174.521C187.202 155.255 168.415 133.625 144.634 112.005C107.926 78.6304 71.4987 56.3544 42.4362 41.6096C72.0143 62.7919 103.967 88.245 136.613 118.656C160.176 140.594 181.03 162.271 199.405 182.974Z" fill="#39B54A"/>
<path d="M201.452 207.594C205.816 222.005 211.556 249.745 199.514 277.24C179.759 322.354 119.79 349.36 52.8529 337.141C50.5717 279.026 78.8946 228.136 123.275 209.136C153.165 196.333 181.967 201.594 195.488 205.115C180.171 214.125 162.77 225.969 144.957 241.458C117.457 265.354 98.0821 289.995 84.8373 309.917C102.827 290.172 124.139 269.057 149.129 247.865C167.16 232.568 184.764 219.219 201.452 207.594Z" fill="#39B54A"/>
<path d="M223.441 182.974C242.264 191.141 278.915 203.281 318.046 191.36C382.254 171.797 428.29 95.0575 422.327 2.70331C343.999 -9.55711 270.613 20.6616 237.874 77.6096C215.822 115.969 218.389 155.703 221.02 174.521C235.645 155.255 254.426 133.625 278.212 112.005C314.921 78.6304 351.342 56.3544 380.41 41.6096C350.832 62.7919 318.879 88.245 286.233 118.656C262.671 140.594 241.816 162.271 223.441 182.974Z" fill="#39B54A"/>
<path d="M221.395 207.594C217.03 222.005 211.29 249.745 223.332 277.24C243.087 322.354 303.056 349.36 369.994 337.141C372.275 279.026 343.947 228.136 299.572 209.136C269.681 196.333 240.879 201.594 227.358 205.115C242.676 214.125 260.072 225.969 277.889 241.458C305.389 265.354 324.764 289.995 338.009 309.917C320.02 290.172 298.707 269.057 273.718 247.865C255.686 232.568 238.082 219.219 221.395 207.594Z" fill="#39B54A"/>
</svg>
